<svg xmlns="http://www.w3.org/2000/svg" viewBox="0 0 512 512" width="512">
  <style>
    .st0{fill:#f2685f}.st1{fill:#fff}
  </style>
  <path d="M183.8 72.6c-6.6 0-9.3-3.1-9.3-8.9v-19c0-8.1-3.6-11.6-9-11.6-4.9 0-8.3 3.5-8.3 10.2v29.3h-3.3c-5.4 0-8.9-3.1-8.9-8.9v-19c0-8.1-3.7-11.6-9.1-11.6-4.7 0-8.3 3.7-8.3 10.5v29h-3.3c-5 0-8.8-3.3-8.8-8.9v-19c0-13.4 7-22.3 21.9-22.3 6-.1 11.6 2.8 15 7.7 3.1-4.8 8.4-7.7 14.1-7.7 11.3 0 20.4 6.8 20.4 20.8v29.5h-3.1zm33.2.8h-2.5c-11.7 0-19.7-6.6-19.7-15.6 0-8.8 6.4-15.4 24.4-15.4h4.3v-.6c0-6.9-3.3-9-10.6-9-8.9 0-13.8 3.4-15.6 5.7h-.5v-3.9c0-5.5 4.9-12 17.9-12 10.9 0 20.8 5.1 20.8 22.1V56c.1 10.2-7.6 17.4-18.5 17.4zm6.7-22.2h-4.4c-9.3 0-11.9 2.2-11.9 6.2 0 3.8 3.1 6.1 8.5 6.1s7.8-2.6 7.8-7.6v-4.7zm47.8-15.9c-2.2-1-4.7-1.5-7.1-1.5-5.5 0-8.5 3-8.5 10.5v28.3h-3.4c-5.5 0-8.9-2.7-8.9-7.8V42.1c0-9.8 5.2-19.2 18.1-19.2 7.6 0 10.2 4.3 10.2 8v4.4h-.4zM295.3 73c-10.1 0-15.5-5.4-15.5-15.3V6.9h3.5c6.1 0 8.8 3.6 8.8 8.2v41.4c0 4.9 2.6 6.5 8.3 6.5h3.3v2.6c-.2 5.3-3 7.4-8.4 7.4zm34.2-19.7h-8c.9 6.2 6.6 10.1 13.8 10.1 5.1 0 11.1-1 15-4.7h.5v3.8c0 6.3-4.3 11.1-17.8 11.1-13.4 0-24.2-10.9-24.2-24.3v-.4c0-16.4 10-26.7 24.1-26.7 10.2 0 19.7 7.3 19.7 19-.1 9.1-6.8 12.1-23.1 12.1zm2.3-20.8c-5.9 0-10 4.8-10.3 10.5l-.1 1.6h5.5c11.6 0 14.2-1.3 14.2-4.7 0-5-3.7-7.4-9.3-7.4zm35.5 56c-4.6 0-8.6-3-8.6-7.6v-2.4l6.9-.5c4.5-.3 6-2.1 8.7-9-6.5-9.8-15.8-34.2-17.4-45.8h6.5c3.5-.1 6.4 2.4 7.1 5.8 1.9 9.9 5.2 19.4 9.8 28.4 4-9.2 8.5-24.1 9.6-34.1h5.3c3.9 0 5.7 1.7 5.7 5.8 0 5.2-8.6 27.6-10.8 32.9-9.1 21.5-13.9 26.5-22.8 26.5zM45.2 1.6C20.1 1.6-.2 21.9-.3 47c0 12.3 4.9 24 13.7 32.6-.4 2.5-1.8 6.1-5.8 10-6.4 6.4 13.7 4.9 21.7 0 23.5 8.9 49.7-3 58.6-26.4S85 13.4 61.5 4.5c-5.2-1.9-10.7-2.9-16.3-2.9z" class="st0"/>
  <path d="M45.2 63.9c-2 .2-3.8-1.3-4-3.3V50.2c0-3.9-2.1-5.4-4.7-5.4-1.8 0-4.3 1.4-4.3 5.6v13.5h-2c-2.8 0-4.1-1.6-4.1-4V32.1H28c2.8 0 4.2 1.6 4.2 3.8v6.8c1.1-1.8 3-3 5.2-3.2 6.1 0 9.8 3.7 9.8 10.4v14h-2zm11.3-25.6c-1.9 0-3.4-1.6-3.4-3.5s1.5-3.4 3.4-3.4 3.5 1.5 3.5 3.4c0 2-1.5 3.5-3.5 3.5zm4.3 25.8c-4.6 0-7.1-2.6-7.1-7.4V40.6h1.7c2.7 0 4.2 1.4 4.2 4.4v11.1c0 2.4 1 3.1 3.6 3.1h1.1v1.3c0 2.5-1 3.6-3.5 3.6z" class="st1"/>
</svg>
