<svg enable-background="new 0 0 512 512" height="512" viewBox="0 0 512 512" width="512" fill="none" xmlns="http://www.w3.org/2000/svg">
<path fill-rule="evenodd" clip-rule="evenodd" d="M12 5.41755C11.788 5.99672 11.4832 6.62049 11.0518 7.05183C10.48 7.62366 9.56996 7.97325 8.87399 8.17869C8.53294 8.27936 8.2211 8.35156 7.98731 8.39973C8.18799 10.439 9.90794 12.0323 12 12.0323C14.0921 12.0323 15.812 10.439 16.0127 8.39973C15.7789 8.35156 15.4671 8.27936 15.126 8.17869C14.43 7.97325 13.52 7.62366 12.9482 7.05183C12.5168 6.62049 12.212 5.99672 12 5.41755ZM7 8C7 5.23858 9.23858 3 12 3C14.7614 3 17 5.23858 17 8C17 10.1523 15.6401 11.987 13.7326 12.6917C16.9217 13.3942 19.3983 15.9957 19.9165 19.25C19.9558 19.4964 19.9838 19.7466 20 20H19.2483H4.7517H4C4.01624 19.7466 4.04425 19.4964 4.08349 19.25C4.6017 15.9957 7.07833 13.3942 10.2674 12.6917C8.35992 11.987 7 10.1523 7 8ZM12 13.2539C15.5798 13.2539 18.5554 15.8428 19.156 19.25H4.84398C5.44463 15.8428 8.42024 13.2539 12 13.2539Z" fill="#5E7388"/>
</svg>
